<svg xmlns="http://www.w3.org/2000/svg" width="150" height="23" viewBox="0 0 150 23">
    <g fill="none" fill-rule="evenodd">
        <g fill="#252F48" fill-rule="nonzero">
            <path d="M34.566 7.195c-.373.398-.56.925-.56 1.58v.435h1.677c.23 0 .416.064.558.193.142.13.214.3.214.516a.626.626 0 0 1-.214.483c-.142.13-.328.194-.558.194h-1.676v6.285c0 .247-.076.446-.23.596-.154.151-.367.226-.64.226a.794.794 0 0 1-.806-.822v-6.285h-.706c-.23 0-.417-.065-.559-.194a.626.626 0 0 1-.213-.483c0-.215.071-.387.213-.516.142-.129.329-.193.559-.193h.706v-.274c0-.763.156-1.432.468-2.007a3.318 3.318 0 0 1 1.315-1.337c.564-.317 1.207-.476 1.93-.476.24 0 .441.07.6.21.158.14.238.317.238.532 0 .215-.08.392-.238.531a.876.876 0 0 1-.6.21c-.614 0-1.106.199-1.478.596zM39.593 17.195a4.083 4.083 0 0 1-1.61-1.587c-.384-.677-.575-1.445-.575-2.305 0-.87.191-1.644.575-2.32a4.083 4.083 0 0 1 1.61-1.588c.69-.381 1.472-.572 2.349-.572.865 0 1.64.191 2.324.572.685.381 1.222.91 1.61 1.588.389.676.584 1.45.584 2.32 0 .86-.192 1.628-.575 2.305a4.1 4.1 0 0 1-1.602 1.587c-.684.382-1.465.572-2.341.572-.877 0-1.66-.19-2.35-.572zm3.852-1.265a2.694 2.694 0 0 0 1.035-1.071c.246-.457.37-.976.37-1.556 0-.58-.124-1.101-.37-1.563a2.684 2.684 0 0 0-1.035-1.08 2.936 2.936 0 0 0-1.503-.387c-.559 0-1.06.13-1.503.387a2.743 2.743 0 0 0-1.044 1.08 3.208 3.208 0 0 0-.377 1.563c0 .58.125 1.099.377 1.556.253.456.6.813 1.044 1.071.443.258.944.387 1.503.387.558 0 1.06-.129 1.503-.387zM50.698 17.187a4.176 4.176 0 0 1-1.618-1.603 4.527 4.527 0 0 1-.583-2.28c0-.86.189-1.63.567-2.313a4.036 4.036 0 0 1 1.585-1.596c.68-.381 1.446-.572 2.3-.572 1.292 0 2.366.484 3.22 1.45.109.119.164.258.164.42 0 .236-.12.435-.361.596a.653.653 0 0 1-.378.113.832.832 0 0 1-.64-.29 2.616 2.616 0 0 0-.896-.637 2.861 2.861 0 0 0-1.11-.202c-.843 0-1.527.277-2.053.83-.525.554-.788 1.287-.788 2.2 0 .58.123 1.099.37 1.556.246.456.59.813 1.034 1.071.444.258.95.387 1.52.387.745 0 1.347-.188 1.807-.564.208-.15.41-.226.608-.226.154 0 .296.049.427.145.208.172.312.365.312.58a.596.596 0 0 1-.197.436c-.788.72-1.774 1.08-2.957 1.08-.865 0-1.643-.194-2.333-.58zM66.847 9.097c.154.15.23.349.23.596v7.188a.803.803 0 0 1-.23.588c-.153.156-.355.234-.608.234a.822.822 0 0 1-.6-.234.79.79 0 0 1-.237-.588v-.177c-.351.344-.767.61-1.249.798a4.216 4.216 0 0 1-1.544.282c-.756 0-1.435-.162-2.037-.484a3.436 3.436 0 0 1-1.413-1.41c-.34-.618-.51-1.362-.51-2.232V9.693a.79.79 0 0 1 .239-.588.822.822 0 0 1 .6-.234c.24 0 .44.079.599.234a.79.79 0 0 1 .238.588v3.965c0 .87.238 1.528.715 1.974.476.446 1.109.669 1.897.669.46 0 .88-.091 1.257-.274.378-.183.674-.43.887-.741.214-.312.32-.661.32-1.048V9.693c0-.247.08-.445.239-.596a.836.836 0 0 1 .6-.226c.252 0 .454.075.607.226zM71.2 17.429c-.656-.226-1.171-.521-1.544-.886a.676.676 0 0 1-.213-.5c0-.258.11-.467.328-.628.208-.151.4-.226.575-.226.22 0 .428.097.625.29.208.226.52.421.936.588.417.167.86.25 1.33.25.625 0 1.11-.102 1.455-.306.345-.204.517-.478.517-.822 0-.333-.17-.61-.509-.83-.34-.22-.914-.405-1.725-.556-2.103-.397-3.154-1.247-3.154-2.546 0-.527.158-.973.476-1.338.318-.365.734-.64 1.249-.822a4.87 4.87 0 0 1 1.643-.274c.712 0 1.35.113 1.913.338.565.226 1.01.538 1.34.935.141.172.213.344.213.516 0 .183-.093.349-.28.5a.771.771 0 0 1-.46.128c-.284 0-.541-.102-.771-.306a2.46 2.46 0 0 0-.871-.524c-.307-.102-.68-.153-1.117-.153-.504 0-.918.083-1.24.25-.323.167-.485.4-.485.701 0 .215.055.395.164.54.11.145.318.28.624.403.307.123.75.244 1.331.363 1.194.236 2.04.564 2.538.983.499.419.748.961.748 1.627 0 .494-.138.943-.411 1.346-.274.403-.676.72-1.208.951-.531.231-1.168.346-1.913.346a6.43 6.43 0 0 1-2.103-.338zM85.945 9.403c.64.387 1.144.921 1.512 1.604.367.682.55 1.442.55 2.28 0 .838-.197 1.598-.591 2.28a4.278 4.278 0 0 1-1.635 1.612 4.615 4.615 0 0 1-2.308.588c-.844 0-1.608-.195-2.292-.588a4.38 4.38 0 0 1-1.626-1.611c-.4-.683-.6-1.443-.6-2.28v-7.35c0-.247.08-.445.238-.596a.836.836 0 0 1 .6-.226c.252 0 .454.075.608.226.153.15.23.349.23.596v4.352a4.017 4.017 0 0 1 1.396-1.08 4.114 4.114 0 0 1 1.774-.387c.789 0 1.503.193 2.144.58zm-.986 6.52a2.858 2.858 0 0 0 1.052-1.089c.257-.461.386-.977.386-1.547s-.129-1.082-.386-1.539a2.855 2.855 0 0 0-2.538-1.475c-.548 0-1.043.132-1.487.395a2.813 2.813 0 0 0-1.043 1.08 3.13 3.13 0 0 0-.378 1.54c0 .569.126 1.085.378 1.546.252.462.6.825 1.043 1.088.444.264.939.395 1.487.395.548 0 1.043-.131 1.486-.395zM92.229 17.195a4.083 4.083 0 0 1-1.61-1.587c-.384-.677-.575-1.445-.575-2.305 0-.87.191-1.644.575-2.32a4.083 4.083 0 0 1 1.61-1.588c.69-.381 1.473-.572 2.35-.572.864 0 1.64.191 2.324.572.684.381 1.221.91 1.61 1.588.388.676.583 1.45.583 2.32 0 .86-.191 1.628-.575 2.305a4.1 4.1 0 0 1-1.602 1.587c-.684.382-1.464.572-2.34.572-.877 0-1.66-.19-2.35-.572zm3.852-1.265a2.694 2.694 0 0 0 1.035-1.071c.247-.457.37-.976.37-1.556 0-.58-.123-1.101-.37-1.563a2.684 2.684 0 0 0-1.035-1.08 2.936 2.936 0 0 0-1.503-.387c-.558 0-1.06.13-1.503.387a2.743 2.743 0 0 0-1.043 1.08 3.208 3.208 0 0 0-.378 1.563c0 .58.126 1.099.378 1.556.252.456.6.813 1.043 1.071.444.258.945.387 1.503.387.559 0 1.06-.129 1.503-.387zM107.96 9.411a4.38 4.38 0 0 1 1.626 1.612c.4.682.6 1.442.6 2.28v3.594a.79.79 0 0 1-.239.588.822.822 0 0 1-.6.234.822.822 0 0 1-.6-.234.79.79 0 0 1-.237-.588v-.596a4.017 4.017 0 0 1-1.397 1.08 4.114 4.114 0 0 1-1.774.386 4.068 4.068 0 0 1-3.655-2.183c-.368-.683-.55-1.443-.55-2.28 0-.839.196-1.599.59-2.281a4.278 4.278 0 0 1 1.635-1.612 4.615 4.615 0 0 1 2.308-.588c.844 0 1.608.196 2.292.588zm-.806 6.511a2.813 2.813 0 0 0 1.043-1.08 3.13 3.13 0 0 0 .378-1.539c0-.57-.125-1.085-.378-1.547a2.802 2.802 0 0 0-1.043-1.088 2.855 2.855 0 0 0-1.487-.395c-.547 0-1.043.132-1.486.395a2.858 2.858 0 0 0-1.052 1.088 3.126 3.126 0 0 0-.386 1.547c0 .57.13 1.083.386 1.54a2.855 2.855 0 0 0 2.538 1.475c.548-.001 1.044-.132 1.487-.396zM118.449 9.049c.328.171.493.386.493.644a.566.566 0 0 1-.017.161c-.098.345-.318.516-.657.516-.055 0-.137-.01-.246-.032a6.627 6.627 0 0 0-1.068-.113c-.789 0-1.424.177-1.906.532-.482.355-.723.832-.723 1.434v4.706c0 .258-.068.457-.205.597-.137.139-.343.209-.616.209-.263 0-.466-.067-.608-.201-.142-.135-.214-.336-.214-.605V9.693c0-.258.072-.457.214-.596.142-.14.345-.21.608-.21.548 0 .821.269.821.806V10a3.46 3.46 0 0 1 1.216-.887 3.744 3.744 0 0 1 1.544-.322c.58 0 1.035.086 1.364.258zM128.371 5.342c.154.15.23.349.23.596v7.35c0 .837-.2 1.597-.6 2.28a4.38 4.38 0 0 1-1.626 1.611c-.684.393-1.448.588-2.291.588a4.615 4.615 0 0 1-2.309-.588 4.278 4.278 0 0 1-1.634-1.611 4.475 4.475 0 0 1-.592-2.28c0-.839.184-1.599.55-2.281a4.068 4.068 0 0 1 3.655-2.184c.636 0 1.227.129 1.775.387a4.017 4.017 0 0 1 1.397 1.08V5.938c0-.247.08-.445.238-.596a.836.836 0 0 1 .6-.226c.252 0 .454.075.607.226zm-2.8 10.58a2.802 2.802 0 0 0 1.043-1.088c.252-.461.377-.977.377-1.547a3.13 3.13 0 0 0-.377-1.539 2.813 2.813 0 0 0-1.044-1.08 2.855 2.855 0 0 0-1.486-.395 2.855 2.855 0 0 0-2.539 1.475c-.257.457-.386.97-.386 1.54 0 .569.13 1.085.386 1.546.258.462.608.825 1.052 1.088.443.264.939.395 1.487.395.547 0 1.043-.131 1.486-.395zM131.238 17.63a1.06 1.06 0 0 1-.337-.781c0-.312.113-.578.337-.798a1.1 1.1 0 0 1 .797-.33c.306 0 .572.11.797.33.224.22.336.486.336.798 0 .3-.109.562-.328.781-.22.22-.487.33-.805.33a1.1 1.1 0 0 1-.797-.33zM135.871 17.47a.79.79 0 0 1-.238-.589V9.71c0-.247.08-.445.238-.596a.836.836 0 0 1 .6-.226c.252 0 .454.075.607.226.154.15.23.349.23.596v7.172a.803.803 0 0 1-.23.588c-.153.156-.355.234-.607.234a.822.822 0 0 1-.6-.234zm-.164-10.331c-.214-.21-.32-.46-.32-.75s.106-.54.32-.749c.213-.21.468-.314.764-.314.295 0 .55.105.764.314.213.21.32.46.32.75s-.107.54-.32.749c-.214.21-.469.314-.764.314-.296 0-.55-.105-.764-.314zM142.155 17.195a4.083 4.083 0 0 1-1.61-1.587c-.384-.677-.575-1.445-.575-2.305 0-.87.191-1.644.575-2.32a4.083 4.083 0 0 1 1.61-1.588c.69-.381 1.473-.572 2.35-.572.864 0 1.64.191 2.324.572.684.381 1.221.91 1.61 1.588.388.676.583 1.45.583 2.32 0 .86-.192 1.628-.575 2.305a4.1 4.1 0 0 1-1.602 1.587c-.684.382-1.464.572-2.34.572-.877 0-1.66-.19-2.35-.572zm3.852-1.265a2.694 2.694 0 0 0 1.035-1.071c.247-.457.37-.976.37-1.556 0-.58-.123-1.101-.37-1.563a2.684 2.684 0 0 0-1.035-1.08 2.936 2.936 0 0 0-1.503-.387c-.559 0-1.06.13-1.503.387a2.743 2.743 0 0 0-1.043 1.08 3.208 3.208 0 0 0-.378 1.563c0 .58.125 1.099.378 1.556.252.456.6.813 1.043 1.071.443.258.944.387 1.503.387.559 0 1.06-.129 1.503-.387z"/>
        </g>
        <g fill="#607FD0">
            <path fill-rule="nonzero" d="M5.078.61v1.88H1.904v18.058h3.174v1.868H1.505C.703 22.396.02 21.729 0 20.94V2.099C.02 1.312.7.643 1.505.623c1.19 0 2.382-.005 3.573-.013zm13.33-.047c1.212.012 2.424.031 3.637.062.28.02.362.051.514.115.542.225.91.768.926 1.359v18.84c-.02.788-.7 1.457-1.505 1.477h-3.573v-1.868h3.174V2.49h-3.174V.563z"/>
            <path d="M18.407 6.197c0-.688-.569-1.246-1.27-1.246H6.348c-.7 0-1.27.558-1.27 1.246v10.585c0 .688.57 1.245 1.27 1.245h10.79c.701 0 1.27-.557 1.27-1.245V6.197z"/>
        </g>
    </g>
</svg>
